<svg width="24" height="24" viewBox="0 0 24 24" fill="none" xmlns="http://www.w3.org/2000/svg">
<path d="M18.2816 7.49161L18.2758 7.49226L2.99329 9.49686C2.86452 9.51333 2.74184 9.56146 2.63623 9.63694C2.53062 9.71243 2.44536 9.81292 2.38809 9.92942C2.32674 10.0511 2.29659 10.186 2.30036 10.3222C2.30413 10.4584 2.34169 10.5915 2.40967 10.7095L4.29802 13.9802C4.39119 14.1415 4.53769 14.2652 4.71228 14.33C4.88687 14.3948 5.0786 14.3967 5.25443 14.3354L12.6971 11.6963C12.7264 11.686 12.7584 11.6863 12.7875 11.6971C12.8166 11.7079 12.841 11.7286 12.8565 11.7555C12.8721 11.7824 12.8777 11.8138 12.8725 11.8445C12.8673 11.8751 12.8516 11.9029 12.8281 11.9232L6.82153 17.049C6.68047 17.1705 6.58618 17.3373 6.55491 17.5209C6.52364 17.7044 6.55735 17.8931 6.65024 18.0544L8.53891 21.3257C8.60388 21.4384 8.69581 21.5332 8.80645 21.6016C8.91709 21.67 9.04299 21.7099 9.17284 21.7176C9.32935 21.7275 9.48528 21.691 9.62118 21.6128C9.71555 21.5582 9.79805 21.4853 9.86386 21.3984L19.2577 9.19495L19.2617 9.18918C19.3865 9.02204 19.4595 8.82197 19.4718 8.61375C19.484 8.40552 19.435 8.19826 19.3307 8.01762C19.2264 7.83697 19.0714 7.69087 18.885 7.59738C18.6985 7.50389 18.4887 7.46712 18.2816 7.49161Z" fill="#FCFBFE"/>
</svg>
