<svg width="36" height="19" viewBox="0 0 36 19" fill="none" xmlns="http://www.w3.org/2000/svg">
<path d="M0.517045 18V0.545454H7.40341C8.72727 0.545454 9.85511 0.798295 10.7869 1.30398C11.7188 1.80398 12.429 2.5 12.9176 3.39204C13.4119 4.27841 13.6591 5.30114 13.6591 6.46023C13.6591 7.61932 13.4091 8.64205 12.9091 9.52841C12.4091 10.4148 11.6847 11.1051 10.7358 11.5994C9.79261 12.0937 8.65057 12.3409 7.30966 12.3409H2.92045V9.38352H6.71307C7.4233 9.38352 8.00852 9.26136 8.46875 9.01705C8.93466 8.76705 9.28125 8.4233 9.50852 7.9858C9.74148 7.54261 9.85795 7.03409 9.85795 6.46023C9.85795 5.88068 9.74148 5.375 9.50852 4.94318C9.28125 4.50568 8.93466 4.16761 8.46875 3.92898C8.00284 3.68466 7.41193 3.5625 6.69602 3.5625H4.20739V18H0.517045ZM17.2898 18.2216C16.7273 18.2216 16.2443 18.0227 15.8409 17.625C15.4432 17.2216 15.2443 16.7386 15.2443 16.1761C15.2443 15.6193 15.4432 15.142 15.8409 14.7443C16.2443 14.3466 16.7273 14.1477 17.2898 14.1477C17.8352 14.1477 18.3125 14.3466 18.7216 14.7443C19.1307 15.142 19.3352 15.6193 19.3352 16.1761C19.3352 16.5511 19.2386 16.8949 19.0455 17.2074C18.858 17.5142 18.6108 17.7614 18.304 17.9489C17.9972 18.1307 17.6591 18.2216 17.2898 18.2216ZM20.8991 3.58807V0.545454H35.2344V3.58807H29.8906V18H26.2429V3.58807H20.8991Z" fill="#B9B9FF"/>
</svg>
